<svg xmlns="http://www.w3.org/2000/svg" width="33.703" height="61.458" viewBox="0 0 33.703 61.458">
  <g id="Group_426" data-name="Group 426" transform="translate(-365.966 -2695.196)">
    <path id="Path_1318" data-name="Path 1318" d="M149.738,8H123.965A3.97,3.97,0,0,0,120,11.965V65.493a3.97,3.97,0,0,0,3.965,3.965h25.773a3.97,3.97,0,0,0,3.965-3.965V11.965A3.97,3.97,0,0,0,149.738,8Zm-8.247,1.983-.558,1.983H132.67l-.5-1.983Zm10.23,55.511a1.985,1.985,0,0,1-1.983,1.983H123.965a1.985,1.985,0,0,1-1.983-1.983V11.965a1.985,1.985,0,0,1,1.983-1.983h6.164l.8,3.214a.991.991,0,0,0,.962.751h9.789a.991.991,0,0,0,.954-.722l.912-3.243h6.188a1.985,1.985,0,0,1,1.983,1.983Z" transform="translate(245.966 2687.196)" fill="#acacac"/>
    <path id="Path_1319" data-name="Path 1319" d="M159.93,456h-6.939a.991.991,0,0,0,0,1.983h6.939a.991.991,0,1,0,0-1.983Z" transform="translate(217.931 2294.706)" fill="#acacac"/>
    <path id="Path_1320" data-name="Path 1320" d="M233.983,456h-.991a.991.991,0,1,0,0,1.983h.991a.991.991,0,1,0,0-1.983Z" transform="translate(147.844 2294.706)" fill="#acacac"/>
    <path id="Path_1321" data-name="Path 1321" d="M231.448,208.14a.991.991,0,0,0-1.36.34l-5.948,9.913a.991.991,0,0,0,1.7,1.02l5.948-9.913A.991.991,0,0,0,231.448,208.14Z" transform="translate(154.854 2511.978)" fill="#acacac"/>
    <path id="Path_1322" data-name="Path 1322" d="M297.764,208.37a.991.991,0,1,0-1.548,1.239l3.469,4.337-3.469,4.337a.991.991,0,1,0,1.548,1.239l3.965-4.956a.991.991,0,0,0,0-1.239Z" transform="translate(91.776 2511.979)" fill="#acacac"/>
    <path id="Path_1323" data-name="Path 1323" d="M172.181,219.522a.991.991,0,1,0,1.548-1.239l-3.469-4.337,3.469-4.337a.991.991,0,1,0-1.548-1.239l-3.965,4.956a.991.991,0,0,0,0,1.239Z" transform="translate(203.916 2511.979)" fill="#acacac"/>
  </g>
</svg>
