<svg xmlns="http://www.w3.org/2000/svg" width="71.502" height="46.685" viewBox="0 0 71.502 46.685">
  <g id="Group_397" data-name="Group 397" transform="translate(-248 -2636.889)">
    <g id="Group_427" data-name="Group 427">
      <path id="Path_1357" data-name="Path 1357" d="M0,45.5Z" transform="translate(248 2615)" fill="#b7b7b7"/>
      <path id="Path_1310" data-name="Path 1310" d="M121.525,192.363a.87.87,0,0,1-.565-.209l-5.653-4.813a.874.874,0,0,1,0-1.33l5.653-4.813a.873.873,0,1,1,1.132,1.33l-4.871,4.148,4.871,4.148a.874.874,0,0,1-.567,1.539Zm0,0" transform="translate(165.939 2478.487)" fill="#b7b7b7"/>
      <path id="Path_1311" data-name="Path 1311" d="M250.582,192.363a.874.874,0,0,1-.567-1.539l4.871-4.149-4.871-4.148a.873.873,0,0,1,1.132-1.33l5.653,4.813a.874.874,0,0,1,0,1.33l-5.653,4.813a.87.87,0,0,1-.565.209Zm0,0" transform="translate(48.043 2478.487)" fill="#b7b7b7"/>
      <path id="Path_1312" data-name="Path 1312" d="M189.829,171.5a.889.889,0,0,1-.181-.019.874.874,0,0,1-.675-1.035l3.523-16.727a.874.874,0,1,1,1.71.36l-3.523,16.727A.874.874,0,0,1,189.829,171.5Zm0,0" transform="translate(101.215 2502.961)" fill="#b7b7b7"/>
      <path id="Path_1313" data-name="Path 1313" d="M47.048,46.685H5.865A5.872,5.872,0,0,1,0,40.819V5.865A5.872,5.872,0,0,1,5.865,0H47.048a5.872,5.872,0,0,1,5.865,5.865V40.819A5.872,5.872,0,0,1,47.048,46.685ZM5.865,1.747A4.123,4.123,0,0,0,1.747,5.865V40.819a4.123,4.123,0,0,0,4.118,4.118H47.048a4.123,4.123,0,0,0,4.118-4.118V5.865a4.123,4.123,0,0,0-4.118-4.118Zm0,0" transform="translate(266.588 2636.889)" fill="#b7b7b7"/>
      <path id="Path_1314" data-name="Path 1314" d="M52.04,99.837H.874a.874.874,0,1,1,0-1.747H52.04a.874.874,0,1,1,0,1.747Zm0,0" transform="translate(266.588 2551.04)" fill="#b7b7b7"/>
      <path id="Path_1315" data-name="Path 1315" d="M100.214,39.818a2.765,2.765,0,1,1,2.765-2.765A2.768,2.768,0,0,1,100.214,39.818Zm0-3.782a1.017,1.017,0,1,0,1.017,1.017A1.019,1.019,0,0,0,100.214,36.036Zm0,0" transform="translate(181.3 2606.879)" fill="#b7b7b7"/>
      <path id="Path_1316" data-name="Path 1316" d="M32.151,39.6a2.765,2.765,0,1,1,2.765-2.765A2.768,2.768,0,0,1,32.151,39.6Zm0-3.782a1.017,1.017,0,1,0,1.017,1.017A1.019,1.019,0,0,0,32.151,35.821Zm0,0" transform="translate(240.868 2607.067)" fill="#b7b7b7"/>
      <path id="Path_1317" data-name="Path 1317" d="M168.28,40.033a2.764,2.764,0,1,1,2.765-2.765A2.768,2.768,0,0,1,168.28,40.033Zm0-3.782a1.017,1.017,0,1,0,1.017,1.017A1.018,1.018,0,0,0,168.28,36.251Zm0,0" transform="translate(121.728 2606.691)" fill="#b7b7b7"/>
    </g>
  </g>
</svg>
