<svg id="social-media" xmlns="http://www.w3.org/2000/svg" width="54.843" height="54.843" viewBox="0 0 54.843 54.843">
  <g id="Group_334" data-name="Group 334" transform="translate(18.436 4.769)">
    <g id="Group_333" data-name="Group 333" transform="translate(0 0)">
      <rect id="Rectangle_140" data-name="Rectangle 140" width="18" height="3" transform="translate(-0.109 -0.376)" fill="#acacac"/>
    </g>
  </g>
  <g id="Group_336" data-name="Group 336" transform="translate(11.883 18.281)">
    <g id="Group_335" data-name="Group 335">
      <path id="Path_1328" data-name="Path 1328" d="M137.363,176a3.2,3.2,0,0,0-3.2-3.2h-1.828V160h-1.828v12.8h-2.285a3.194,3.194,0,0,0-2.232,5.484,3.161,3.161,0,0,0-.481,3.961,3.2,3.2,0,0,0-1.858,2.894,3.162,3.162,0,0,0,.321,1.371H116.8a8.223,8.223,0,0,0-3.537-6.755,5.494,5.494,0,0,0,3.537-5.127.914.914,0,0,0-.914-.914H108.57V164.57h-1.828v9.141A2.745,2.745,0,0,0,104,176.453v20.109h1.828V176.453a.915.915,0,0,1,.914-.914h8.11a3.662,3.662,0,0,1-3.54,2.742H108.57a.914.914,0,0,0,0,1.828,6.406,6.406,0,0,1,6.4,6.4v.914a.914.914,0,0,0,.914.914h5.348a3.162,3.162,0,0,0-.321,1.371,3.2,3.2,0,0,0,3.2,3.2v3.656h1.828v-3.656h4.113a3.2,3.2,0,0,0,3.2-3.2,3.16,3.16,0,0,0-.328-1.384,3.175,3.175,0,0,0,2.584-4.862,3.183,3.183,0,0,0,.89-5.179A3.186,3.186,0,0,0,137.363,176Zm-7.312,15.082h-5.941a1.371,1.371,0,1,1,0-2.742h5.941a1.371,1.371,0,0,1,0,2.742Zm2.742-4.57h-5.941a1.371,1.371,0,1,1,0-2.742h5.941a1.371,1.371,0,1,1,0,2.742Zm1.371-4.57h-5.941a1.371,1.371,0,1,1,0-2.742h5.941a1.371,1.371,0,1,1,0,2.742Zm0-4.57h-5.941a1.371,1.371,0,0,1,0-2.742h5.941a1.371,1.371,0,0,1,0,2.742Z" transform="translate(-104 -160)" fill="#acacac"/>
    </g>
  </g>
  <g id="Group_338" data-name="Group 338" transform="translate(3.656 8.226)">
    <g id="Group_337" data-name="Group 337">
      <path id="Path_1329" data-name="Path 1329" d="M42.052,75.408a.913.913,0,0,0-.359-.663l-.952-.721a2.495,2.495,0,0,0-4.944.457,5.306,5.306,0,0,1-2.053-.829l-.319-.215A.914.914,0,0,0,32,74.194v.75a5.279,5.279,0,0,0,.948,3.035l-.684.692a.914.914,0,0,0,.65,1.557h4.429a3.46,3.46,0,0,0,3.423-3.075l1.024-1.036A.915.915,0,0,0,42.052,75.408Zm-2.827.7a.913.913,0,0,0-.264.643A1.633,1.633,0,0,1,37.343,78.4H35.018a.915.915,0,0,0-.188-1.008,3.5,3.5,0,0,1-.886-1.562,7.109,7.109,0,0,0,2.768.559.914.914,0,0,0,.914-.914v-.96a.668.668,0,1,1,1.335,0,.915.915,0,0,0,.362.728l.436.33Z" transform="translate(-32 -72)" fill="#acacac"/>
    </g>
  </g>
  <g id="Group_340" data-name="Group 340" transform="translate(24.679 13.711)">
    <g id="Group_339" data-name="Group 339">
      <path id="Path_1330" data-name="Path 1330" d="M221.484,121.828V120h-2.742a.914.914,0,0,0-.914.914v2.742H216v1.828h1.828v3.656h1.828v-3.656h1.828v-1.828h-1.828v-1.828Z" transform="translate(-216 -120)" fill="#acacac"/>
    </g>
  </g>
  <g id="Group_342" data-name="Group 342" transform="translate(19.195 10.055)">
    <g id="Group_341" data-name="Group 341">
      <path id="Path_1331" data-name="Path 1331" d="M181.711,88H170.742A2.745,2.745,0,0,0,168,90.742v10.969a2.745,2.745,0,0,0,2.742,2.742h10.969a2.745,2.745,0,0,0,2.742-2.742V90.742A2.745,2.745,0,0,0,181.711,88Zm.914,13.711a.915.915,0,0,1-.914.914H170.742a.915.915,0,0,1-.914-.914V90.742a.915.915,0,0,1,.914-.914h10.969a.915.915,0,0,1,.914.914Z" transform="translate(-168 -88)" fill="#acacac"/>
    </g>
  </g>
  <g id="Group_344" data-name="Group 344" transform="translate(0 4.57)">
    <g id="Group_343" data-name="Group 343">
      <path id="Path_1332" data-name="Path 1332" d="M13.711,40H2.742A2.745,2.745,0,0,0,0,42.742V53.711a2.745,2.745,0,0,0,2.742,2.742H13.711a2.745,2.745,0,0,0,2.742-2.742V42.742A2.745,2.745,0,0,0,13.711,40Zm.914,13.711a.915.915,0,0,1-.914.914H2.742a.915.915,0,0,1-.914-.914V42.742a.915.915,0,0,1,.914-.914H13.711a.915.915,0,0,1,.914.914Z" transform="translate(0 -40)" fill="#acacac"/>
    </g>
  </g>
  <g id="Group_346" data-name="Group 346" transform="translate(38.39)">
    <g id="Group_345" data-name="Group 345">
      <path id="Path_1333" data-name="Path 1333" d="M349.711,0H338.742A2.745,2.745,0,0,0,336,2.742V13.711a2.745,2.745,0,0,0,2.742,2.742h10.969a2.745,2.745,0,0,0,2.742-2.742V2.742A2.745,2.745,0,0,0,349.711,0Zm.914,13.711a.915.915,0,0,1-.914.914H338.742a.915.915,0,0,1-.914-.914V9.141h1.921a4.57,4.57,0,0,0,8.956,0h1.921Zm-9.141-5.484a2.742,2.742,0,1,1,2.742,2.742A2.745,2.745,0,0,1,341.484,8.226Zm9.141-.914H348.7a4.57,4.57,0,0,0-8.956,0h-1.921V2.742a.915.915,0,0,1,.914-.914h10.969a.915.915,0,0,1,.914.914Z" transform="translate(-336)" fill="#acacac"/>
    </g>
  </g>
  <g id="Group_348" data-name="Group 348" transform="translate(26.974 37.496)">
    <g id="Group_347" data-name="Group 347" transform="translate(0 0)">
      <rect id="Rectangle_141" data-name="Rectangle 141" width="1" height="2" transform="translate(0.353 -0.103)" fill="#acacac"/>
    </g>
  </g>
</svg>
