<svg id="vector" xmlns="http://www.w3.org/2000/svg" width="60.003" height="52.693" viewBox="0 0 60.003 52.693">
  <g id="Group_332" data-name="Group 332" transform="translate(0 0)">
    <g id="Group_330" data-name="Group 330" transform="translate(24.508 23.336)">
      <g id="Group_329" data-name="Group 329">
        <g id="Group_326" data-name="Group 326" transform="translate(0 3.911)">
          <g id="Group_325" data-name="Group 325">
            <path id="Path_1324" data-name="Path 1324" d="M214.62,274.593a5.361,5.361,0,1,1,5.493-5.359A5.434,5.434,0,0,1,214.62,274.593Zm0-8.431a3.073,3.073,0,1,0,3.149,3.072A3.115,3.115,0,0,0,214.62,266.162Z" transform="translate(-209.127 -263.875)" fill="#acacac"/>
          </g>
        </g>
        <g id="Group_328" data-name="Group 328" transform="translate(11.419)">
          <g id="Group_327" data-name="Group 327">
            <path id="Path_1325" data-name="Path 1325" d="M307.737,231.946a1.155,1.155,0,0,1-1.083-1.581,1.166,1.166,0,1,1,1.083,1.581Z" transform="translate(-306.561 -229.665)" fill="#acacac"/>
          </g>
        </g>
      </g>
    </g>
    <g id="Group_331" data-name="Group 331">
      <path id="Path_1326" data-name="Path 1326" d="M56.25,26.43a3.753,3.753,0,0,0-3.566,2.519H35.04a5.44,5.44,0,0,0-10.077,0H7.32A3.753,3.753,0,0,0,3.754,26.43a3.663,3.663,0,1,0,0,7.324A3.753,3.753,0,0,0,7.32,31.235H14a14.49,14.49,0,0,0-2.152,1.69,13.753,13.753,0,0,0-4.329,9.388A4.064,4.064,0,0,0,8.675,50.3a4.064,4.064,0,0,0,1.188-7.982,11.947,11.947,0,0,1,11.97-11.086h2.794a5.4,5.4,0,0,0,10.748,0H38.17A11.952,11.952,0,0,1,50.14,42.32a4.178,4.178,0,1,0,2.346-.005,13.755,13.755,0,0,0-4.34-9.4,14.487,14.487,0,0,0-2.14-1.679h6.678a3.753,3.753,0,0,0,3.566,2.519,3.663,3.663,0,1,0,0-7.324Zm-52.5,5.037a1.376,1.376,0,1,1,1.41-1.375A1.394,1.394,0,0,1,3.754,31.467Zm6.755,14.761a1.834,1.834,0,1,1-1.833-1.788A1.813,1.813,0,0,1,10.508,46.229ZM30,33.792a2.974,2.974,0,1,1,3.047-2.973A3.014,3.014,0,0,1,30,33.792ZM53.155,46.229a1.834,1.834,0,1,1-1.833-1.788A1.813,1.813,0,0,1,53.155,46.229Zm3.1-14.761a1.376,1.376,0,1,1,1.41-1.375A1.394,1.394,0,0,1,56.25,31.467Z" transform="translate(0 -25.56)" fill="#acacac"/>
      <path id="Path_1327" data-name="Path 1327" d="M172.16,153.134a1.187,1.187,0,0,0-1.589-.459,1.129,1.129,0,0,0-.47,1.55l1.4,2.51a3.964,3.964,0,0,1,.037,3.8l-3.341,6.279H155.5l-3.341-6.279a3.964,3.964,0,0,1,.037-3.8l8.478-15.225v7.045a1.172,1.172,0,0,0,2.344,0v-7.045l2.365,4.248a1.187,1.187,0,0,0,1.589.459,1.129,1.129,0,0,0,.47-1.55l-3.289-5.906a1.177,1.177,0,0,0-1.03-.6H160.57a1.176,1.176,0,0,0-1.03.6l-9.4,16.883a6.2,6.2,0,0,0-.057,5.95l2.78,5.225h-.326a1.144,1.144,0,1,0,0,2.287h.753l-1.909,7.456a1.121,1.121,0,0,0,.213.981,1.183,1.183,0,0,0,.924.44H171.18a1.183,1.183,0,0,0,.924-.44,1.122,1.122,0,0,0,.213-.981l-1.909-7.456h.753a1.144,1.144,0,1,0,0-2.287h-.326l2.78-5.225a6.2,6.2,0,0,0-.057-5.95ZM169.679,175.7H154.018l1.688-6.59h12.286Z" transform="translate(-131.847 -125.29)" fill="#acacac"/>
    </g>
  </g>
</svg>
