<svg id="XMLID_1011_" xmlns="http://www.w3.org/2000/svg" width="45.559" height="45.561" viewBox="0 0 45.559 45.561">
  <g id="XMLID_217_" transform="translate(0)">
    <path id="XMLID_218_" d="M102.9,44a.89.89,0,1,0,.629.261A.9.9,0,0,0,102.9,44Z" transform="translate(-92.934 -40.085)" fill="#acacac"/>
    <path id="XMLID_1591_" d="M54.9,44a.89.89,0,1,0,.629.261A.9.9,0,0,0,54.9,44Z" transform="translate(-49.205 -40.085)" fill="#acacac"/>
    <path id="XMLID_1675_" d="M150.9,44a.89.89,0,1,0,.629.261A.9.9,0,0,0,150.9,44Z" transform="translate(-136.663 -40.085)" fill="#acacac"/>
    <path id="XMLID_1676_" d="M160.262,360.02h-7.445a.89.89,0,1,0,0,1.78h7.445a.89.89,0,1,0,0-1.78Z" transform="translate(-138.409 -327.984)" fill="#acacac"/>
    <path id="XMLID_1678_" d="M288.6,360.02a.89.89,0,1,0,.629.261A.895.895,0,0,0,288.6,360.02Z" transform="translate(-262.109 -327.984)" fill="#acacac"/>
    <path id="XMLID_1682_" d="M340.98,360.02a.89.89,0,1,0,.629.261A.9.9,0,0,0,340.98,360.02Z" transform="translate(-309.829 -327.984)" fill="#acacac"/>
    <path id="XMLID_1683_" d="M160.262,184.02h-7.445a.89.89,0,0,0,0,1.78h7.445a.89.89,0,1,0,0-1.78Z" transform="translate(-138.409 -167.645)" fill="#acacac"/>
    <path id="XMLID_1686_" d="M288.6,184.02a.89.89,0,1,0,.629.261A.9.9,0,0,0,288.6,184.02Z" transform="translate(-262.109 -167.645)" fill="#acacac"/>
    <path id="XMLID_1726_" d="M340.98,184.02a.89.89,0,1,0,.629.261A.9.9,0,0,0,340.98,184.02Z" transform="translate(-309.829 -167.645)" fill="#acacac"/>
    <path id="XMLID_1727_" d="M160.262,272.02h-7.445a.89.89,0,0,0,0,1.78h7.445a.89.89,0,1,0,0-1.78Z" transform="translate(-138.409 -247.815)" fill="#acacac"/>
    <path id="XMLID_1728_" d="M288.6,272.02a.89.89,0,1,0,.629.261A.895.895,0,0,0,288.6,272.02Z" transform="translate(-262.109 -247.815)" fill="#acacac"/>
    <path id="XMLID_1729_" d="M340.98,272.02a.89.89,0,1,0,.629.261A.9.9,0,0,0,340.98,272.02Z" transform="translate(-309.829 -247.815)" fill="#acacac"/>
    <path id="XMLID_1741_" d="M41.832,0H3.747A3.742,3.742,0,0,0,.01,3.737V30.428a3.742,3.742,0,0,0,3.737,3.737H9.442v.9a2.673,2.673,0,0,0,2.669,2.669H21.9v1.913a3.038,3.038,0,0,0-2,2H10.332a.89.89,0,1,0,0,1.78H19.9a3.026,3.026,0,0,0,5.783,0h9.566a.89.89,0,1,0,0-1.78H25.681a3.038,3.038,0,0,0-2-2V37.731h9.788a2.673,2.673,0,0,0,2.669-2.669v-.9h5.695a3.742,3.742,0,0,0,3.737-3.737V3.737A3.742,3.742,0,0,0,41.832,0ZM22.79,43.782a1.246,1.246,0,1,1,1.246-1.246A1.247,1.247,0,0,1,22.79,43.782ZM11.222,19.4V15.129a.891.891,0,0,1,.89-.89H33.468a.891.891,0,0,1,.89.89V19.4a.891.891,0,0,1-.89.89H12.112A.891.891,0,0,1,11.222,19.4Zm0,7.831V22.959a.891.891,0,0,1,.89-.89H33.468a.891.891,0,0,1,.89.89v4.271a.891.891,0,0,1-.89.89H12.112A.891.891,0,0,1,11.222,27.231Zm22.246,8.72H12.112a.891.891,0,0,1-.89-.89V30.79a.891.891,0,0,1,.89-.89H33.468a.891.891,0,0,1,.89.89v4.271A.891.891,0,0,1,33.468,35.951Zm8.364-3.566H36.137v-1.6a2.658,2.658,0,0,0-.682-1.78,2.659,2.659,0,0,0,.682-1.78V22.959a2.658,2.658,0,0,0-.682-1.78,2.659,2.659,0,0,0,.682-1.78V15.129a2.673,2.673,0,0,0-2.669-2.669H12.112a2.673,2.673,0,0,0-2.669,2.669V19.4a2.658,2.658,0,0,0,.682,1.78,2.659,2.659,0,0,0-.682,1.78v4.271a2.658,2.658,0,0,0,.682,1.78,2.659,2.659,0,0,0-.682,1.78v1.6H3.747A1.96,1.96,0,0,1,1.79,30.428V9.61h17a.89.89,0,0,0,0-1.78h-17V3.737A1.96,1.96,0,0,1,3.747,1.78H41.832A1.96,1.96,0,0,1,43.79,3.737V7.831h-17a.89.89,0,1,0,0,1.78h17V30.428A1.96,1.96,0,0,1,41.832,32.385Z" transform="translate(-0.01 0)" fill="#acacac"/>
    <path id="XMLID_1759_" d="M246.9,88a.89.89,0,1,0,.629.261A.9.9,0,0,0,246.9,88Z" transform="translate(-224.12 -80.169)" fill="#acacac"/>
  </g>
</svg>
